<?xml version="1.0" encoding="UTF-8" standalone="no"?>
<!-- Created with Inkscape (http://www.inkscape.org/) -->

<svg
   version="1.1"
   id="svg1"
   width="963.62158"
   height="229.62926"
   viewBox="0 0 963.62158 229.62926"
   sodipodi:docname="farejei.svg"
   inkscape:export-filename="farejei.svg"
   inkscape:export-xdpi="96"
   inkscape:export-ydpi="96"
   inkscape:version="1.4.2 (f4327f4, 2025-05-13)"
   xmlns:inkscape="http://www.inkscape.org/namespaces/inkscape"
   xmlns:sodipodi="http://sodipodi.sourceforge.net/DTD/sodipodi-0.dtd"
   xmlns="http://www.w3.org/2000/svg"
   xmlns:svg="http://www.w3.org/2000/svg">
  <sodipodi:namedview
     id="namedview1"
     pagecolor="#ffffff"
     bordercolor="#000000"
     borderopacity="0.25"
     inkscape:showpageshadow="2"
     inkscape:pageopacity="0.0"
     inkscape:pagecheckerboard="0"
     inkscape:deskcolor="#d1d1d1"
     inkscape:zoom="1.3032311"
     inkscape:cx="394.40434"
     inkscape:cy="137.73459"
     inkscape:window-width="1920"
     inkscape:window-height="1009"
     inkscape:window-x="-8"
     inkscape:window-y="-8"
     inkscape:window-maximized="1"
     inkscape:current-layer="svg1" />
  <defs
     id="defs1">
    <clipPath
       clipPathUnits="userSpaceOnUse"
       id="clipPath35">
      <rect
         style="fill:#abc837;fill-opacity:0.506881;fill-rule:evenodd;stroke:#000000;stroke-width:0.645;paint-order:stroke markers fill"
         id="rect35"
         width="1006.8699"
         height="344.7435"
         x="217.06071"
         y="217.06071" />
    </clipPath>
  </defs>
  <g
     id="g1"
     transform="translate(-240.55969,-251.44475)"
     inkscape:export-filename="farejei-icon.png"
     inkscape:export-xdpi="96"
     inkscape:export-ydpi="96">
    <path
       style="display:none;fill:#ffffff"
       d="m 326.28689,538.53307 c -11.13402,-6.0463 -11.93645,-8.18701 -5.31217,-14.17165 11.89652,-10.74779 24.32733,-2.51473 20.07074,13.29305 -1.9368,7.19273 -3.01333,7.25682 -14.75857,0.8786 z m 11.82675,0.01 c 5.5164,-10.30749 -4.06792,-20.62422 -13.31964,-14.33751 -7.32074,4.97457 -7.19072,7.40265 0.58483,10.92226 2.83693,1.28414 6.05806,3.04586 7.15806,3.91493 2.73634,2.16188 4.22365,2.02861 5.57675,-0.49968 z m 5.96312,-6.30855 c -1.72805,-2.08218 -0.95043,-4.52985 2.18124,-6.86574 5.33404,-3.97863 10.86507,2.21477 5.95015,6.66271 -2.25745,2.04296 -6.51613,2.1493 -8.13139,0.20303 z m 6.45299,-2.18375 c 2.04138,-2.04138 0.56108,-3.83357 -2.3922,-2.89624 -2.35396,0.74693 -2.91526,4.53176 -0.67209,4.53176 0.78572,0 2.16464,-0.73607 3.06429,-1.63571 z m -9.82619,-8.03096 c -2.33838,-2.33837 -0.2595,-8.97541 3.40485,-10.87032 7.18326,-3.7146 11.93101,2.45017 6.8559,8.90213 -2.01979,2.56775 -8.43135,3.7976 -10.26075,1.96819 z m 8.29437,-3.52189 c 2.42441,-2.60229 2.56732,-4.12805 0.54397,-5.80729 -2.77553,-2.30348 -8.51664,2.91721 -7.14338,6.49585 0.83998,2.18897 4.25006,1.83317 6.59941,-0.68856 z m -28.89956,-0.74996 c -2.4745,-2.4745 -2.61309,-4.82894 -0.46479,-7.89607 3.89136,-5.55569 10.71482,0.62566 7.33592,6.64559 -1.92259,3.42533 -4.26922,3.85239 -6.87113,1.25048 z m 5.21612,-3.015 c 0.62617,-2.3945 -1.5449,-5.61735 -3.1259,-4.64024 -1.24238,0.76784 -1.57536,4.83677 -0.48503,5.92709 1.29134,1.29134 3.10581,0.6447 3.61093,-1.28685 z m 7.95786,1.8622 c -6.34985,-2.39761 -4.09908,-13.90887 2.71953,-13.90887 3.54556,0 5.04501,1.71366 5.04501,5.76574 0,6.11718 -3.47566,9.76223 -7.76454,8.14294 z m 4.73017,-5.15713 c 2.43516,-4.33953 -1.04925,-8.52507 -4.34956,-5.22476 -1.63343,1.63343 -2.20694,6.54901 -0.91483,7.84111 1.31817,1.31818 3.72879,0.12013 5.26439,-2.61635 z m 272.27945,2.09353 c -0.68479,-0.68498 -1.24508,-3.15982 -1.24508,-5.49982 0,-4.25454 0,-4.25454 -2.45455,-1.8 -4.24528,4.24529 -10.54545,2.66427 -10.54545,-2.64638 0,-4.08354 1.47996,-6.57879 4.97344,-8.38534 5.14593,-2.66106 8.69003,-0.18779 8.19933,5.72194 -0.12857,1.54843 0.0701,1.52146 1.84156,-0.25 5.69693,-5.69693 12.17633,1.86571 8.33511,9.72858 -1.99292,4.07945 -6.57875,5.65644 -9.10436,3.13083 z m 6.17027,-2.75154 c 2.35755,-2.60506 1.80344,-8.44078 -0.84925,-8.94409 -3.6802,-0.69826 -6.27517,6.74148 -3.3661,9.65055 1.61963,1.61963 2.19799,1.5227 4.21535,-0.70646 z m -10.23434,-8.59147 c 1.25561,-2.75595 0.49952,-5.50226 -1.51477,-5.50226 -2.50376,0 -6.66624,4.05821 -6.66624,6.49926 0,4.3713 6.0722,3.63116 8.18101,-0.99719 z m 358.40788,5.4212 c -5.84444,-6.94572 -0.79077,-16.25511 6.17544,-11.37579 1.99452,1.39704 2.15152,1.39683 1.61462,-0.002 -2.86444,-7.4647 8.7089,-9.85509 12.5914,-2.60064 3.75778,7.02142 -2.2362,13.05965 -8.5641,8.6274 -1.9314,-1.35281 -2.0158,-1.27175 -1.6032,1.53944 0.9645,6.57164 -5.77545,9.08693 -10.21416,3.81182 z m 7.97856,-2.13582 c 0.803,-2.53005 -2.45077,-7.16535 -5.33189,-7.59575 -2.82809,-0.42247 -3.73852,2.935 -1.80812,6.66797 2.32942,4.50462 5.8592,4.96328 7.14001,0.92778 z m 10.2326,-4.98764 c 2.7376,-2.73766 -1.0336,-8.8 -5.4744,-8.8 -3.6528,0 -3.4945,4.35755 0.2815,7.75 2.8699,2.57842 3.5308,2.71205 5.1929,1.05 z m -8.8,-1.3 c 0,-0.275 -0.225,-0.5 -0.5,-0.5 -0.275,0 -0.5,0.225 -0.5,0.5 0,0.275 0.225,0.5 0.5,0.5 0.275,0 0.5,-0.225 0.5,-0.5 z m 194.30236,10.42152 c -2.5437,-0.94717 -5.3024,-5.74256 -5.3024,-9.21687 0,-4.54402 6.6869,-7.61772 9.8,-4.50465 0.9333,0.93333 1.2,0.53333 1.2,-1.8 0,-6.43001 5.9884,-7.45508 10.8964,-1.8652 3.4254,3.90127 3.5194,4.24134 2.1609,7.81453 -1.7531,4.61105 -7.2489,4.26226 -11.2876,-0.71637 -1.6885,-2.08154 -1.7017,-2.05548 -0.5443,1.08111 2.2153,6.00372 -1.6656,11.16516 -6.923,9.20745 z m 4.8927,-4.45041 c 0.9672,-2.12279 0.826,-2.96587 -0.8793,-5.25 -2.9079,-3.89476 -5.7308,-3.60841 -6.1361,0.62243 -0.5746,5.9972 4.7816,9.53028 7.0154,4.62757 z m 11.6317,-7.27615 c 0.5578,-3.93498 -4.8297,-8.171 -7.5768,-5.95735 -1.8657,1.50341 -1.5175,3.84874 0.9634,6.48953 2.7453,2.92229 6.1626,2.6473 6.6134,-0.53218 z m -561.25538,8.23361 c -2.58687,-2.58687 -2.04128,-8.25737 0.92451,-9.60867 3.35497,-1.52863 6.50406,1.19972 6.50406,5.63509 0,5.18215 -4.05237,7.34978 -7.42857,3.97358 z m 5.01963,-4.9218 c -0.44496,-1.77284 -1.22168,-2.53197 -2.3653,-2.31173 -2.34015,0.45067 -2.67678,3.21108 -0.63999,5.24787 2.21123,2.21123 3.88642,0.57459 3.00529,-2.93614 z m 324.40894,2.49323 c -3.54374,-3.54374 -1.27016,-10 3.52152,-10 4.54529,0 6.20391,7.67805 2.25597,10.4433 -2.86015,2.00333 -3.36998,1.96421 -5.77749,-0.4433 z m 4.92607,-2.86186 c 0.7047,-1.31674 0.61302,-2.38621 -0.31311,-3.65277 -1.61498,-2.20862 -3.61296,-1.15405 -3.61296,1.90698 0,3.87754 2.24979,4.87795 3.92607,1.74579 z m 196.27394,2.66186 c -1.7116,-1.71162 -1.4838,-7.37339 0.3714,-9.22857 3.405,-3.40499 7.4286,-0.85505 7.4286,4.70784 0,4.29882 -5.0785,7.24222 -7.8,4.52073 z m 5.1616,-3.3 c 0.8599,-2.24081 -0.3913,-4.64022 -2.2374,-4.29054 -2.5175,0.47684 -2.7906,5.79054 -0.2976,5.79054 1.0777,0 2.2184,-0.675 2.535,-1.5 z M 424.51606,497.0226 c -3.75892,-3.75892 1.48459,-12.33631 7.54141,-12.33631 5.24226,0 6.82643,7.2439 2.52487,11.54545 -2.87713,2.87714 -7.6083,3.24884 -10.06628,0.79086 z m 7.84277,-2.13956 c 2.28441,-2.52424 2.51522,-6.19465 0.473,-7.52179 -3.25318,-2.11408 -8.90936,5.87729 -6.12827,8.65837 1.23652,1.23653 4.01255,0.67861 5.65527,-1.13658 z m 8.06284,3.03794 c -3.48439,-2.29546 -1.89297,-9.81805 2.29965,-10.87033 3.03351,-0.76137 5.31557,1.18583 5.31557,4.53558 0,5.06551 -4.217,8.57344 -7.61522,6.33475 z m 4.51026,-4.03857 c 1.22477,-2.2885 -0.19172,-4.67999 -2.29412,-3.87322 -2.03943,0.7826 -2.15677,5.6771 -0.1361,5.6771 0.80565,0 1.89925,-0.81175 2.43022,-1.80388 z m -169.67292,0.83251 c -47.91316,-17.24133 -49.37724,-131.71082 -2.24273,-175.34906 3.37403,-3.12376 6.55896,-5.67957 7.07761,-5.67957 0.51865,0 0.943,-0.85689 0.943,-1.90421 0,-1.59634 3.17462,-11.72222 5.35979,-17.09579 0.41639,-1.02393 -0.41371,-1.97607 -2.61543,-3 -7.7897,-3.62265 -10.18581,-14.64304 -4.28697,-19.717 3.42547,-2.94648 11.45554,-3.13145 16.83695,-0.38785 4.55972,2.32468 5.571,1.12884 2.58803,-3.06034 -10.24182,-14.38332 5.67448,-26.98811 18.62722,-14.75167 3.00958,2.84316 3.00958,2.84316 10,0.20501 11.74334,-4.43189 30.73796,-3.98531 43.20271,1.01574 10.89718,4.37211 12.26675,4.45937 18.70718,1.19192 14.11234,-7.15965 39.56662,-0.46117 52.08052,13.70538 8.12158,9.19415 9.59787,11.4318 12.39391,18.78571 9.38338,24.67943 5.3803,53.56241 -8.63872,62.32997 -7.41467,4.63717 -9.62943,4.97891 -34.75519,5.36268 -32.2681,0.49288 -33.5,0.77858 -33.5,7.76943 0,5.7022 1.1103,5.9993 24.48214,6.55102 30.35606,0.71659 36.04487,4.66779 35.99417,25 -0.0502,20.13861 -7.32127,25.21193 -36.97631,25.79991 -23.9566,0.47501 -22.0157,-1.14289 -22.80923,19.01337 -1.43765,36.51731 -21.89154,52.60957 -48.11165,37.85221 -4.07912,-2.29584 -4.07912,-2.29584 -10.57912,4.38506 -12.30911,12.65169 -29.12209,17.2519 -43.77788,11.97808 z m 18.74425,-1.09287 c 35.19509,-5.71018 49.72612,-52.85622 42.18187,-136.85944 -4.25683,-47.39868 -21.23219,-61.35683 -51.93627,-42.70509 -58.43224,35.49571 -57.03543,176.5112 1.78803,180.51165 0.825,0.0561 4.40987,-0.3701 7.96637,-0.94712 z m 66.99489,-16.74189 c 10.62287,-5.28872 13.7468,-13.2312 14.71543,-37.41346 0.83923,-20.95166 -0.95213,-19.48034 24.32331,-19.97765 29.09062,-0.57238 37.47163,-6.80736 35.65405,-26.52457 -1.53405,-16.64158 -8.11521,-20.27819 -36.69733,-20.27819 -21.79937,0 -23.95672,-0.71959 -23.95672,-7.99079 0,-9.48082 1.51862,-10.00921 28.76668,-10.00921 42.14104,0 51.073,-5.82796 52.87488,-34.5 0.93595,-14.89306 -6.53364,-43.64436 -9.44828,-36.36754 -9.13031,22.79513 -63.19328,7.97051 -63.19328,-17.32824 0,-5.44695 -0.14654,-5.80422 -2.38071,-5.80422 -1.30939,0 -6.82189,-1.65186 -12.25,-3.67081 -30.9501,-11.51166 -62.53435,2.37172 -78.87495,34.67081 -2.07124,4.09403 -7.49434,18.19928 -7.49434,19.49243 0,0.0782 3.14252,-1.41775 6.98339,-3.32427 26.10995,-12.9604 43.80291,1.73329 47.96231,39.83184 5.62055,51.48211 2.7516,97.36587 -7.40876,118.49013 -4.27041,8.87855 -4.24795,8.08172 -0.28694,10.18081 9.08979,4.81704 21.65637,5.03102 30.71126,0.52293 z M 347.67673,293.08752 c -4.48056,-3.04461 -6.63984,-7.55486 -6.63984,-13.86911 0,-12.03817 15.96762,-11.49335 21.89307,0.747 5.91717,12.22324 -4.00912,20.76268 -15.25323,13.12211 z m 10.79389,-0.55299 c 7.83781,-3.57114 0.61309,-18.84824 -8.91356,-18.84824 -11.15367,0 -6.1671,16.07938 6.18278,19.93661 0.11162,0.0349 1.34047,-0.4549 2.73078,-1.08837 z m 77.56627,-3.60596 c 23.61811,-10.5034 -11.92477,-38.38438 -40.98713,-32.15162 -16.90086,3.62459 -6.65868,26.88539 14.98713,34.03697 4.55195,1.50392 21.0726,0.30595 26,-1.88535 z m -145.24117,-4.00415 c 1.79235,-3.15597 3.98476,-6.75065 4.872,-7.98818 1.56419,-2.18172 1.50416,-2.2956 -1.97671,-3.75 -12.01818,-5.02152 -20.52996,5.72714 -11.26152,14.22103 4.6164,4.23061 4.54074,4.25307 8.36623,-2.48285 z m 157.24117,-4.73813 c -415.204177,-232.761259 -415.204177,-232.761259 0,0 z M 309.73393,263.56612 c 3.74163,-2.81609 6.9877,-5.28834 7.2135,-5.49387 0.69774,-0.63513 -3.26066,-4.51565 -6.10852,-5.98834 -8.93557,-4.62076 -16.15355,5.31215 -10.32467,14.20815 1.99023,3.03748 1.28506,3.24597 9.21969,-2.72594 z m 285.55296,229.98662 c -3.12246,-3.16355 0.0155,-8.86645 4.87874,-8.86645 4.39482,0 6.72975,5.2127 3.52595,7.87162 -2.19108,1.81843 -7.02683,2.39082 -8.40469,0.99483 z m 6.63989,-3.23377 c 0.8609,-1.03733 0.78521,-1.65743 -0.31364,-2.5694 -1.77391,-1.47221 -5.57625,0.21333 -5.57625,2.4719 0,1.87217 4.35718,1.94429 5.88989,0.0975 z m -182.38989,-2.43851 c -7.9849,-1.63445 -5.08823,-12.19417 3.34501,-12.19417 6.70145,0 8.77816,3.91752 4.66684,8.80354 -2.64949,3.14874 -4.78284,4.05158 -8.01185,3.39063 z m 5.31144,-4.23313 c 2.88956,-2.69203 2.76987,-4.77704 -0.31873,-5.55222 -2.76479,-0.69392 -7.49271,1.77597 -7.49271,3.91423 0,3.7586 4.51828,4.70604 7.81144,1.63799 z m 553.43861,3.81847 c -2.4939,-1.20273 -3.0941,-5.53548 -1.05,-7.57951 1.8211,-1.82118 5.5625,-1.43745 7.8,0.8 4.77548,4.77552 -0.3115,9.88471 -6.75,6.77951 z m 5.75,-3.24433 c 0,-1.93251 -3.2493,-3.61722 -4.9496,-2.56633 -0.7381,0.45612 -1.0654,1.54972 -0.7275,2.43023 0.7826,2.03943 5.6771,2.15677 5.6771,0.1361 z m 194.48916,1.08865 c -2.3532,-3.59147 -0.5571,-6.62383 3.9235,-6.62383 4.0299,0 5.8433,1.9072 5.4096,5.68953 -0.4641,4.04708 -6.8732,4.68867 -9.3331,0.9343 z m 7.0379,-0.66763 c 0.8131,-1.31571 -1.3099,-3.9562 -3.1809,-3.9562 -0.7749,0 -1.6854,0.72042 -2.0233,1.60092 -0.9792,2.55167 3.7578,4.6955 5.2042,2.35528 z m -631.76307,-2.95191 c -7.50474,-2.25971 -17.34472,-11.76274 -21.49019,-20.75429 -2.42046,-5.25 -2.42046,-5.25 -14.09716,-5.26365 -6.42218,-0.008 -12.16267,-0.10203 -13.29853,-0.40709 -1.81389,-0.48715 -2.94338,0.39252 -5.37922,6.6024 -10.02118,25.5477 -42.98909,27.21697 -55.66166,2.81831 -6.21334,-11.96263 -2.93153,-28.76926 18.84344,-96.5 14.90621,-46.36556 46.8094,-61.59135 77.51017,-36.9917 15.56833,12.47446 26.68406,36.37412 39.29707,84.4917 2.95551,11.275 6.52979,24.48784 7.94284,29.36187 7.65351,26.39907 -8.67266,44.16824 -33.66676,36.64242 z m 19.48799,-2.43104 c 13.59484,-4.85152 17.41794,-15.13601 12.25258,-32.96058 -1.37246,-4.73609 -4.77713,-17.27393 -7.56593,-27.86187 -20.7526,-78.78928 -47.75358,-109.84538 -81.21631,-93.41373 -18.63274,9.14948 -25.47415,21.38094 -40.64248,72.66293 -2.19619,7.425 -5.86949,19.575 -8.1629,27 -10.79853,34.96069 -1.97376,54.46377 24.65604,54.49079 13.3679,0.0136 19.45541,-4.59577 25.37737,-19.21522 0.82651,-2.04039 2.23952,-4.15309 4.52944,-5.37355 9.30768,-4.96074 28.09816,-2.68783 31.92112,5.66261 7.17051,15.66245 24.48674,24.13474 38.85107,19.00862 z m -71.58536,-56.23992 c -4.53282,-4.53281 5.52738,-22.31483 12.63299,-22.32959 7.35639,-0.0153 17.11928,18.58429 11.59205,22.08435 -1.61237,1.02101 -23.23042,1.23987 -24.22504,0.24524 z m 22.55288,-2.88621 c 2.18105,-2.18105 -4.91827,-15.08241 -8.84131,-16.06703 -4.26568,-1.07062 -11.29235,7.82072 -11.35628,14.36991 -0.0212,2.17213 18.19218,3.70252 20.19759,1.69712 z m -27.00617,-14.71998 c -3.71062,-3.94978 -2.66517,-8.72714 1.90979,-8.72714 2.34861,0 3.23575,0.6848 4.60391,3.55387 2.89495,6.07078 -2.01047,9.96673 -6.5137,5.17327 z m 4.78662,-2.02714 c 0,-1.44095 -1.95378,-3.7 -3.2,-3.7 -1.21356,0 -0.95634,2.44366 0.4,3.8 1.57031,1.57031 2.8,1.52639 2.8,-0.1 z m 23.0076,2.80916 c -0.68051,-0.81996 -1.04015,-2.83405 -0.79919,-4.47576 0.34046,-2.31972 0.15668,-2.75136 -0.82469,-1.9369 -2.06555,1.71426 -6.72293,0.63437 -7.95134,-1.84364 -1.11396,-2.24714 -1.11396,-2.24714 -2.25173,0.25 -2.60056,5.70761 -11.2717,1.26865 -11.47416,-5.87389 -0.23979,-8.45949 9.29034,-10.51577 11.81856,-2.55005 0.59633,1.87886 0.80717,1.7645 2.31551,-1.25592 1.16398,-2.33085 2.46243,-3.41573 4.34886,-3.63358 5.03254,-0.58116 8.53652,5.72116 5.90806,10.62632 -0.76967,1.43633 -0.36485,1.68426 2.75,1.68426 3.48157,0 3.66678,0.17107 3.95722,3.65498 0.44008,5.27888 -4.84667,8.90923 -7.7971,5.35418 z m 5.4098,-5.64281 c -0.96128,-1.55538 -3.17243,-0.91112 -3.69201,1.07575 -0.27932,1.06815 -0.25583,2.19413 0.0522,2.50218 0.82433,0.82433 4.26825,-2.56105 3.63979,-3.57793 z m -19.59917,-6.68986 c 0.52287,-5.43376 -3.56877,-8.37965 -5.8134,-4.18552 -0.80416,1.50258 -0.67595,2.74434 0.52266,5.06218 2.09995,4.06086 4.85963,3.60358 5.29074,-0.87666 z m 12.1474,0.57506 c 1.57144,-2.80036 0.81421,-5.65827 -1.72334,-6.50412 -1.88111,-0.62704 -4.53385,4.45475 -3.8168,7.31173 0.82475,3.28607 3.45837,2.90216 5.54014,-0.80761 z m 95.37461,87.35155 c -18.12802,-4.66769 -21.68723,-18.3652 -21.59383,-83.1031 0.0947,-65.60016 2.22823,-71.88298 25.93805,-76.38066 66.24355,-12.56618 106.06571,8.98168 108.26665,55.38066 0.79844,16.83233 -3.71565,27.30192 -13.04842,37.60746 -6.15181,6.79303 -6.29355,5.95019 2.59998,15.46006 17.65636,18.87998 15.89433,38.71515 -4.32107,48.64239 -17.14933,8.42159 -34.69574,-0.0876 -46.64146,-22.61881 -10.02896,-18.91598 -14.49198,-19.63847 -16.00599,-2.5911 -1.81728,20.46204 -16.92099,32.3081 -35.19391,27.6031 z m 18.48354,-3.67355 c 9.42125,-3.93548 15.17622,-15.08071 15.17622,-29.3907 0,-12.86466 10.85062,-10.58228 17.53909,3.68927 12.28604,26.21537 33.11104,35.24566 50.55849,21.92354 14.01423,-10.70066 13.78498,-27.24486 -0.57022,-41.15166 -10.2012,-9.88255 -10.52652,-11.53217 -3.73892,-18.95889 9.83092,-10.7566 13.4582,-17.74074 14.20914,-28.80832 2.28623,-33.69562 -32.45875,-68.24006 -83.62413,-63.8305 -44.53748,3.83836 -45.5084,4.99701 -47.42729,56.59771 -3.24032,87.13513 6.5669,113.00875 37.87762,99.92955 z m 7.19803,-74.38879 c -3.61499,-6.75468 7.45618,-27.1018 15.57526,-28.62495 10.00435,-1.87683 25.99507,22.59205 19.20293,29.38419 -2.30467,2.30467 -33.50294,1.62358 -34.77819,-0.75924 z m 32.67575,-4.51704 c -2.37404,-14.6295 -13.04315,-24.97272 -20.06341,-19.45058 -4.64561,3.65424 -11.77176,19.27715 -10.05788,22.05027 1.99915,3.23468 30.66657,0.76047 30.12129,-2.59969 z m -39.24301,-17.97827 c -4.56712,-4.56711 -2.58493,-12.54545 3.11688,-12.54545 4.95832,0 9.04115,8.11835 6.48492,12.8947 -1.58852,2.96818 -6.46162,2.79093 -9.6018,-0.34925 z m 7.54545,-2.93467 c 0,-3.28574 -3.24371,-7.11497 -5.34424,-6.30892 -2.10024,0.80593 -2.15059,5.06046 -0.0843,7.12671 2.45859,2.45859 5.42857,2.01118 5.42857,-0.81779 z m 32.46883,3.71519 c -3.49377,-3.49377 0.94376,-13.32597 6.01435,-13.32597 6.01797,0 7.8995,7.70823 3.06227,12.54545 -2.84655,2.84656 -6.68086,3.17628 -9.07662,0.78052 z m 6.95654,-3.2435 c 2.27939,-2.5187 1.73177,-6.58247 -0.88703,-6.58247 -2.3439,0 -5.13375,4.506 -4.23689,6.84318 0.84622,2.2052 2.99106,2.09607 5.12392,-0.26071 z m -33.6628,-5.64786 c -8.96024,-4.86177 -7.10759,-21.43461 2.39614,-21.43461 2.61913,0 7.84129,5.27663 7.84129,7.92308 0,1.1423 0.45,2.07692 1,2.07692 0.55,0 1,-0.93462 1,-2.07692 0,-2.98294 5.29986,-7.92308 8.5,-7.92308 9.18944,0 10.90863,15.39782 2.38571,21.3675 -4.56513,3.19754 -10.88571,-0.0316 -10.88571,-5.56138 0,-1.05828 -0.45,-1.64604 -1,-1.30612 -0.55,0.33992 -1,1.45882 -1,2.48644 0,4.30895 -5.82747,6.84099 -10.23743,4.44817 z m 6.10905,-2.77992 c 3.37886,-4.07128 1.48254,-13.77273 -2.96826,-15.18536 -4.52575,-1.43642 -7.65249,6.37803 -4.74002,11.84641 2.27945,4.27983 5.69835,5.76077 7.70828,3.33895 z m 14.58919,0.72198 c 4.71161,-1.80802 6.65756,-10.97739 3.04908,-14.36738 -5.39997,-5.073 -11.48005,3.33969 -8.15871,11.28879 1.57732,3.77505 2.24552,4.17765 5.10963,3.07859 z m 232.73052,109.11688 c -27.11788,-8.20119 -43.2836,-28.18726 -41.98106,-51.90219 1.31018,-23.8541 27.96025,-37.13973 46.35533,-23.10912 3.36457,2.56628 4.68462,4.72845 7.43736,12.18197 1.30694,3.53876 5.64394,5.90002 8.92438,4.85885 4.41183,-1.40026 4.57266,-2.9311 4.57266,-43.52306 0,-50.35516 2.36903,-56.07568 24.24769,-58.55096 18.38635,-2.08018 27.27736,6.96698 30.92236,31.46552 13.79878,92.74411 -20.06617,146.8494 -80.47872,128.57899 z m 34.34857,-1.00349 c 21.85038,-5.5356 31.48634,-15.80957 38.68871,-36.41407 4.21665,-12.06298 7.24871,-28.61318 7.20254,-49.07599 -0.13381,-59.29887 -7.0318,-75.34477 -30.7263,-71.47355 -20.61546,3.36818 -22.20485,7.48501 -22.20485,57.51498 0,35.12639 -0.15618,38.78001 -1.76265,41.23412 -4.4518,6.80075 -14.26935,3.8703 -16.65981,-4.9728 -6.95382,-25.72447 -47.50338,-14.84377 -48.83949,13.10514 -1.54966,32.41592 38.22115,59.2229 74.30185,50.08217 z m 203.96011,2.63603 c -17.0421,-4.49629 -22.5,-24.33717 -22.5,-81.79354 0,-62.12912 6.5684,-78.83255 31,-78.83255 21.356,0 27.4965,14.45123 28.6815,67.5 1.7032,76.24679 -8.0994,100.79891 -37.1815,93.12609 z m 18.896,-4.40748 c 23.1276,-12.79393 23.4226,-139.78886 0.3529,-151.91187 -11.8922,-6.24929 -28.3586,-0.8566 -33.269,10.89549 -8.7551,20.95399 -8.2987,113.81193 0.6469,131.60775 5.9643,11.865 20.2823,16.03967 32.2692,9.40863 z m -383.89601,3.0859 c -32.44665,-1.94605 -33.7792,-4.19598 -35.12404,-59.30451 -2.02309,-82.90195 1.64344,-96.46963 26.61852,-98.49955 70.4963,-5.72978 89.91598,-0.70149 89.98356,23.29921 0.0532,18.89916 -7.38436,23.60437 -38.86843,24.58919 -19.53826,0.61115 -19.53826,0.61115 -21.04077,3.29281 -3.21682,5.74135 -0.26022,6.81503 18.83615,6.8403 24.52845,0.0325 32.08386,4.97257 32.08386,20.97804 0,15.60436 -7.04844,19.98549 -32.16742,19.99442 -16.97727,0.006 -18.82143,0.54693 -18.82143,5.5203 0,4.3738 2.91326,5.26926 15.35638,4.72014 33.99138,-1.50003 47.20787,6.3186 45.36575,26.83753 -1.86592,20.78415 -19.65107,25.48494 -82.22213,21.73212 z m 47.5,-1.83851 c 25.32371,-1.57269 30.31073,-4.51831 32.51299,-19.20406 2.78889,-18.59766 -6.55873,-24.84931 -37.82843,-25.29952 -21.41207,-0.30828 -22.68456,-0.72871 -22.68456,-7.49496 0,-6.05384 1.08236,-6.40625 21.39919,-6.96746 23.37276,-0.64563 27.51326,-2.78633 29.20065,-15.0972 2.22371,-16.22373 -5.66073,-21.84769 -30.67553,-21.88084 -19.30231,-0.0256 -21.88448,-1.09026 -20.50306,-8.45389 0.94112,-5.01658 1.85624,-5.2448 23.57875,-5.8804 30.36671,-0.88852 37.08269,-5.08195 37.18732,-23.21962 0.1156,-20.03792 -18.57551,-25.24927 -75.96269,-21.17952 -34.17098,2.42332 -34.32087,2.61377 -36.34342,46.1772 -2.72449,58.68267 0.50692,96.97481 8.72936,103.44258 6.31138,4.96453 37.41125,7.16785 71.38943,5.05769 z m 208.50001,2.00757 c -22.3252,-1.65654 -22.483,-1.69338 -27.122,-6.33232 -7.95668,-7.95677 -9.54278,-19.67803 -9.55908,-70.64125 -0.026,-80.26301 -0.2856,-79.7745 43.68108,-82.07144 58.0115,-3.03068 74.4248,2.16462 74.4683,23.57144 0.038,18.59929 -9.1084,24.29024 -40.4683,25.18037 -19.9795,0.56711 -21.5,0.95179 -21.5,5.43933 0,4.33212 2.2325,4.8803 19.8751,4.8803 24.565,0 30.7984,3.70486 31.8895,18.9536 1.2545,17.53404 -5.3484,22.03146 -32.3596,22.04082 -18.2612,0.006 -20.8648,0.94531 -18.8155,6.78586 0.9543,2.71972 0.9543,2.71972 21.9961,3.31114 23.8413,0.6701 29.5443,2.15925 34.6115,9.03777 7.9048,10.73025 5.7094,28.93367 -4.2873,35.54919 -6.153,4.07188 -44.6466,6.35523 -72.4098,4.29519 z m 47.8212,-1.97479 c 24.931,-1.61488 31.6952,-6.40439 31.6732,-22.42692 -0.024,-17.31282 -7.5338,-21.70211 -38.2752,-22.37006 -22.966,-0.49901 -23.7192,-0.73478 -23.7192,-7.42431 0,-6.02847 2.2343,-6.77688 20.25,-6.78307 23.3671,-0.008 29.6828,-2.69486 31.2738,-13.3047 2.6995,-18.00149 -4.6234,-23.63347 -30.7738,-23.66776 -18.5646,-0.0243 -20.75,-0.74047 -20.75,-6.79945 0,-6.55839 0.9188,-6.8688 22.2035,-7.50096 34.2578,-1.01747 47.222,-12.03741 37.9065,-32.22155 -5.9334,-12.85588 -45.9035,-17.4074 -95.0072,-10.81877 -14.5964,1.9585 -17.36438,14.54983 -17.32758,78.81877 0.034,59.12645 3.03778,71.13007 18.25808,72.95875 19.4959,2.3424 43.152,2.90908 64.2879,1.54003 z m -660.85732,-6.40153 c -3.11489,-2.27766 -0.95244,-6.99855 3.3977,-7.41758 5.35904,-0.51623 9.17641,4.38233 5.93841,7.62033 -1.63136,1.63136 -6.98688,1.51505 -9.33611,-0.20275 z m 7.33276,-2.76181 c 0.40837,-2.14376 -3.39699,-3.41201 -5.35697,-1.78538 -1.13805,0.9445 -1.20256,1.53073 -0.28952,2.63088 1.53089,1.84461 5.23984,1.28923 5.64649,-0.8455 z M 727.73608,328.05214 c -0.34878,-0.34878 -4.13628,-1.86727 -8.41667,-3.37442 -9.53952,-3.35893 -10.70768,-6.15974 -5.19008,-12.44393 10.24671,-11.67036 20.90756,-7.42918 20.90756,8.3176 0,6.87077 -3.91183,10.88973 -7.30081,7.50075 z m 5.30081,-7.52041 c 0,-13.08723 -10.62439,-16.62505 -17.75958,-5.91376 -3.0685,4.6064 -2.83108,4.92112 6.08701,8.06891 4.25569,1.50211 8.01907,3.01258 8.36308,3.35659 1.3805,1.3805 3.30949,-1.8321 3.30949,-5.51174 z m 443.75071,1.4539 c -2.6545,-0.67635 -3.3382,-4.99269 -1.1703,-7.38814 3.0352,-3.3539 8.8327,-2.30138 9.2207,1.67397 0.4064,4.16542 -3.433,6.89067 -8.0504,5.71417 z m 5.2129,-3.75554 c 1.3708,-1.6517 0.596,-3.5438 -1.4512,-3.5438 -1.8341,0 -4.6759,2.92647 -3.9626,4.08062 0.8709,1.40908 4.0615,1.09272 5.4138,-0.53682 z m -443.71361,-1.20608 c -1.88112,-0.75905 -1.50136,-5.80027 0.57874,-7.68273 2.13913,-1.93589 6.25541,-2.17084 7.97126,-0.45499 4.10789,4.10789 -2.63414,10.52482 -8.55,8.13772 z m 5.79833,-3.17577 c 2.27058,-1.83861 2.01806,-4.16195 -0.45236,-4.16195 -1.83884,0 -4.91568,3.67368 -4.13491,4.93699 0.93138,1.507 1.98993,1.32816 4.58727,-0.77504 z m 427.15168,-3.36195 c -3.7638,-3.76378 1.4276,-12.8 7.3537,-12.8 5.9483,0 7.3679,6.23222 2.5232,11.07692 -3.1001,3.10009 -7.6978,3.90218 -9.8769,1.72308 z m 9.1798,-5.10693 c 3.7584,-5.03387 -2.4032,-8.02142 -6.3072,-3.05821 -2.3429,2.97847 -2.5746,4.46314 -0.9501,6.08761 1.543,1.54299 4.8852,0.14788 7.2573,-3.0294 z m -29.6752,3.05693 c -2.5382,-1.89117 -3.2372,-7.07449 -1.2254,-9.08631 2.1971,-2.19716 4.0847,-2.09981 6.5208,0.33631 4.763,4.76301 -0.026,12.67619 -5.2954,8.75 z m 4.1118,-4.49145 c -0.4156,-3.60127 -3.8164,-4.49106 -3.8164,-0.99854 0,2.745 0.7271,3.73999 2.7331,3.73999 0.9362,0 1.295,-0.90783 1.0833,-2.74145 z m -443.5939,2.18475 c -4.20266,-2.94366 -2.51143,-10.4433 2.35505,-10.4433 4.48105,0 6.81865,6.60379 3.5091,9.91334 -2.49882,2.49882 -2.98985,2.5432 -5.86415,0.52996 z m 4.77749,-4.33631 c 0,-3.14976 -2.76828,-5.07592 -4.15474,-2.89086 -1.61825,2.55036 -0.35381,5.78387 2.26173,5.78387 1.42112,0 1.89301,-0.72117 1.89301,-2.89301 z m 16.66369,4.41384 c -0.91503,-0.91503 -1.66369,-2.55706 -1.66369,-3.64896 0,-1.85181 -0.14941,-1.88063 -2.22251,-0.42857 -6.13485,4.29702 -11.85926,-4.59845 -7.22079,-11.22079 3.77822,-5.39417 11.37068,-0.84674 10.0831,6.03917 -0.51154,2.7357 -0.43368,2.9279 0.50166,1.23832 3.74366,-6.76246 11.85854,-6.01711 11.85854,1.08922 0,6.1355 -7.52887,10.73905 -11.33631,6.93161 z m 7.89605,-3.97166 c 1.95893,-2.9897 1.54945,-5.90446 -0.89563,-6.37534 -2.636,-0.50765 -5.66411,2.68996 -5.66411,5.98116 0,3.77852 4.17774,4.02956 6.55974,0.39418 z M 728.60072,298.288 c 1.60098,-6.37882 -1.95922,-9.98029 -5.11094,-5.17016 -2.32969,3.55556 -1.24428,7.56845 2.04711,7.56845 1.76419,0 2.63248,-0.67968 3.06383,-2.39829 z m 432.00758,6.82686 c -3.7989,-3.79888 -0.2014,-14.42857 4.8831,-14.42857 2.6945,0 5.5455,3.78646 5.5455,7.36514 0,6.62472 -6.479,11.01303 -10.4286,7.06343 z m 7.4208,-4.4097 c 2.3302,-5.6257 -3.3288,-9.96512 -5.8317,-4.47182 -1.6325,3.58291 -1.4431,6.19542 0.5291,7.29912 2.3588,1.32003 3.9322,0.48109 5.3026,-2.8273 z"
       id="path1"
       clip-path="url(#clipPath35)" />
    <path
       style="display:inline;fill:#280b0b;fill-opacity:1;fill-rule:evenodd;stroke:none;stroke-width:0.630641;stroke-opacity:1;paint-order:stroke markers fill"
       d="m 262.00776,331.56279 c 11.02845,-16.68526 32.29078,-29.31847 47.21717,-29.45269 21.09364,-0.18968 26.67712,18.63994 33.47596,68.64379 6.33056,46.55974 22.39867,69.16479 10.14543,86.13514 -39.33795,54.48183 -161.17507,-18.91214 -90.83856,-125.32624 z"
       id="path128" />
    <path
       style="display:inline;fill:#280b0b;fill-opacity:1;fill-rule:evenodd;stroke:none;stroke-width:0.364391;stroke-opacity:1;paint-order:stroke markers fill"
       d="m 407.75784,299.10647 c -7.21858,-3.05658 -13.44983,-7.69743 -18.24683,-13.5897 -7.60176,-9.33741 -9.81023,-20.10014 -5.30858,-25.87084 2.14934,-2.75528 5.05285,-4.14317 10.56577,-5.05045 15.58121,-2.56428 35.6478,4.56303 46.5336,16.52794 11.16141,12.26781 8.15723,23.74984 -7.20923,27.5539 -2.51644,0.62295 -7.57499,1.08764 -13.8207,1.26959 -8.73801,0.25454 -10.1524,0.15955 -12.51403,-0.84044 z"
       id="path130" />
    <path
       style="display:none;fill:#280b0b;fill-opacity:1;fill-rule:evenodd;stroke:none;stroke-width:0.361272;stroke-opacity:1;paint-order:stroke markers fill"
       d="m 304.42707,273.00192 c -2.08272,-2.39198 -3.43617,-6.07326 -3.46593,-9.42712 -0.0363,-4.09357 1.21115,-7.09698 4.04824,-9.17747 2.73604,-2.00639 6.67366,-1.91332 9.83385,-0.76603 3.46417,1.25765 8.10667,6.35044 8.1031,7.06575 -0.005,0.87744 -16.11476,13.28978 -17.24923,13.28978 -0.22685,0 -0.79836,-0.44321 -1.27003,-0.98491 z"
       id="path131" />
    <path
       style="display:none;fill:#280b0b;fill-opacity:1;fill-rule:evenodd;stroke:none;stroke-width:0.33499;stroke-opacity:1;paint-order:stroke markers fill"
       d="m 287.41087,291.49777 c -3.72933,-3.4408 -5.31081,-6.39346 -5.31081,-9.91545 0,-3.52439 1.28468,-5.79639 4.30327,-7.6105 3.00291,-1.80468 8.56703,-1.70267 12.56419,0.23033 1.60431,0.77584 2.91693,1.53885 2.91693,1.69557 0,0.15673 -0.76945,1.54581 -1.70989,3.08685 -0.94044,1.54104 -2.91139,4.95539 -4.37988,7.58743 -2.86709,5.13881 -4.38466,7.17831 -5.34131,7.17831 -0.3306,0 -1.69972,-1.01364 -3.0425,-2.25254 z"
       id="path132" />
    <path
       style="display:inline;fill:#f26644;fill-opacity:1;fill-rule:evenodd;stroke:none;stroke-width:0.16125;stroke-opacity:1;paint-order:stroke markers fill"
       d="m 342.51804,479.84291 c -4.4908,-0.43161 -9.71882,-2.06572 -13.34024,-4.16972 -1.62739,-0.94549 -1.99691,-1.51818 -1.67287,-2.59265 0.0963,-0.3193 1.02002,-2.38054 2.05272,-4.58054 1.0327,-2.2 2.2732,-5.0125 2.75668,-6.25 8.51137,-21.7856 10.84554,-63.50674 6.16809,-110.24867 -0.68416,-6.83682 -1.09554,-9.88127 -1.87504,-13.87633 -2.25674,-11.56624 -6.02286,-20.42714 -11.27644,-26.53117 -5.256,-6.10685 -12.76479,-9.10437 -20.72224,-8.27236 -5.1369,0.53711 -9.57926,2.02529 -17.54848,5.8787 -3.86302,1.86792 -3.93667,1.89183 -3.78017,1.22743 0.48415,-2.05535 4.91808,-13.54469 6.78346,-17.57749 3.25362,-7.03407 8.50417,-14.57828 14.31149,-20.56334 9.98865,-10.29435 21.28892,-16.31325 34.875,-18.57557 2.1136,-0.35195 4.08064,-0.45712 8.5,-0.45445 8.72254,0.005 12.10876,0.65132 23.5,4.48355 3.85,1.29521 8.0125,2.54191 9.25,2.77045 1.2375,0.22854 2.39231,0.45735 2.56625,0.50848 0.5494,0.16149 0.80875,1.3172 0.80875,3.60395 0,6.73373 1.9725,11.60156 6.72158,16.58785 7.67988,8.06346 22.31666,13.88884 34.94783,13.90909 5.52988,0.009 9.53416,-0.81823 13.58059,-2.80512 2.21237,-1.08632 2.94064,-1.60537 4.63298,-3.30197 1.49934,-1.50311 2.24624,-2.49839 2.94859,-3.92912 1.19672,-2.43781 1.4035,-2.61426 2.26731,-1.93479 2.30933,1.81652 5.31639,12.37368 7.07843,24.85088 0.59801,4.23457 0.58897,14.32035 -0.0167,18.625 -1.43347,10.18825 -3.98095,16.06083 -8.64302,19.9243 -7.30678,6.05516 -18.72613,8.05947 -46.0176,8.07695 -22.42112,0.0144 -25.53498,0.8602 -26.27499,7.1372 -0.30221,2.56352 -0.11682,5.53822 0.42616,6.83775 0.79734,1.90829 1.89757,2.60914 5.20326,3.31447 1.94763,0.41556 3.94174,0.51751 14.02057,0.71681 18.11722,0.35825 23.65441,0.81962 28.65905,2.38795 8.937,2.80062 12.32397,8.98141 12.31841,22.47957 -0.002,3.8026 -0.0874,4.84338 -0.55416,6.71568 -2.18694,8.77327 -8.94847,12.94669 -23.5483,14.53475 -1.85625,0.20191 -7.7625,0.48202 -13.125,0.62247 -15.05913,0.39442 -17.39008,0.66187 -19.5773,2.24628 -2.26602,1.6415 -2.68101,3.57809 -3.17123,14.79897 -0.5636,12.90069 -1.0465,17.8531 -2.28724,23.45685 -1.76501,7.97158 -5.07465,12.81513 -11.03997,16.15662 -3.68415,2.06369 -8.19062,3.40235 -12.92426,3.83918 -3.06737,0.28307 -3.77598,0.28024 -6.98196,-0.0279 z M 359.3525,295.40655 c 2.77733,-1.05531 4.73865,-3.58679 5.25289,-6.77995 0.62096,-3.8558 -1.1345,-9.06426 -4.29779,-12.7516 -2.7449,-3.19963 -7.30501,-5.48465 -10.96877,-5.49631 -0.63864,-0.002 -1.91462,0.22903 -2.83552,0.51347 -1.32985,0.41074 -1.94598,0.78367 -2.9945,1.8125 -1.91881,1.88277 -2.47048,3.4715 -2.4464,7.04534 0.0408,6.05343 2.26895,10.47939 6.78812,13.48373 4.10881,2.73153 8.06478,3.47885 11.50197,2.17282 z"
       id="path140" />
    <path
       style="display:inline;fill:#f26644;fill-opacity:1;fill-rule:evenodd;stroke:none;stroke-width:0.16125;stroke-opacity:1;paint-order:stroke markers fill"
       d="m 559.60543,480.25304 c -6.79016,-1.28691 -12.52874,-4.39528 -17.74619,-9.61244 -3.06999,-3.06982 -4.84067,-5.50569 -6.89707,-9.48807 -0.66669,-1.29111 -1.68279,-2.83458 -2.258,-3.42994 -2.93126,-3.03397 -8.08427,-5.00444 -14.76667,-5.64664 -6.99758,-0.67249 -14.41123,1.0166 -17.41078,3.96679 -1.30612,1.28462 -1.83383,2.17317 -3.38953,5.70726 -3.78552,8.59957 -7.13369,12.6892 -12.38719,15.13033 -3.62287,1.68343 -8.40484,2.41986 -14,2.15601 -15.68866,-0.73982 -24.65006,-8.18264 -26.73171,-22.2018 -0.50391,-3.39371 -0.51032,-9.90418 -0.0137,-13.91566 0.78703,-6.35711 2.04975,-11.76456 5.00164,-21.41888 1.05105,-3.4375 3.76025,-12.4164 6.02046,-19.95311 9.13484,-30.46036 12.9013,-41.24337 18.09243,-51.79689 3.77452,-7.67357 6.61866,-11.76395 11.33054,-16.29537 5.59252,-5.37833 14.38304,-10.08929 22.10978,-11.84894 3.1436,-0.71592 8.51137,-0.89388 11.60454,-0.38474 4.96546,0.81732 9.98162,2.93099 14.46101,6.09344 2.96963,2.09657 9.68842,8.76099 12.28501,12.18561 9.99629,13.18398 18.85539,32.22568 26.86804,57.75 2.40329,7.65568 4.09633,13.6207 7.85755,27.68411 1.66452,6.22374 3.84919,14.29714 4.85481,17.94089 2.1297,7.71664 2.26979,8.30641 2.76134,11.625 1.42335,9.60941 -1.03981,16.82657 -7.25692,21.263 -2.12963,1.51967 -5.76807,3.20587 -8.62858,3.99883 -2.98397,0.82719 -8.72328,1.0669 -11.76082,0.49121 z M 522.5,423.35815 c 1.86164,-0.16239 3.22139,-0.40596 3.58345,-0.64191 0.82808,-0.53964 1.52962,-2.24719 1.53606,-3.73875 0.0185,-4.29407 -3.50785,-11.41431 -7.55884,-15.26236 -2.34212,-2.22479 -3.80195,-2.96777 -5.81067,-2.95735 -2.01987,0.0105 -3.69675,0.93482 -6.125,3.37628 -4.26928,4.2925 -7.5,10.88595 -7.5,15.30644 0,1.73021 0.42687,3.205 1.03699,3.58272 0.1859,0.11509 0.78801,0.28349 1.33801,0.37422 1.64763,0.27182 16.27127,0.24235 19.5,-0.0393 z m -19.47999,-16.20457 c 1.91632,-1.16857 2.12661,-4.12116 0.52442,-7.36298 -1.25538,-2.54009 -1.96956,-3.0406 -4.3386,-3.0406 -1.94099,0 -2.65441,0.33291 -3.69038,1.72206 -0.75511,1.01254 -0.6829,3.1413 0.16208,4.77794 1.74245,3.37491 5.19734,5.21168 7.34248,3.90358 z m 26.27621,0.20609 c 1.06242,-0.40055 2.32015,-1.71215 2.98195,-3.10967 1.05904,-2.23636 0.68546,-6.12692 -0.65317,-6.8023 -0.34375,-0.17343 -1.525,-0.31852 -2.625,-0.32243 -1.1,-0.004 -2.26323,-0.0776 -2.58495,-0.16371 -0.66074,-0.17691 -0.65067,-0.3005 0.22103,-2.71156 1.58926,-4.39575 -1.45037,-9.375 -5.72304,-9.375 -2.45508,0 -3.71439,0.98448 -5.42614,4.24194 -0.51328,0.97677 -1.05415,1.73564 -1.20194,1.68638 -0.14779,-0.0493 -0.49737,-0.64708 -0.77684,-1.32847 -0.80747,-1.96877 -1.56868,-3.01005 -2.7935,-3.82134 -2.9177,-1.9326 -6.47239,-0.81204 -8.21152,2.58857 -0.66707,1.30435 -0.75099,1.71295 -0.74232,3.61426 0.007,1.62286 0.14721,2.48996 0.57544,3.56907 1.42068,3.58 5.54203,6.14735 8.37004,5.21402 1.0674,-0.35227 2.29234,-1.67811 2.9345,-3.1762 0.25656,-0.59853 0.58107,-1.08823 0.72114,-1.08823 0.14007,0 0.53471,0.55262 0.87698,1.22806 0.34227,0.67543 0.95548,1.4653 1.36269,1.75526 1.84169,1.31139 4.68154,1.65488 6.33872,0.76668 0.5131,-0.275 1.01983,-0.5 1.12608,-0.5 0.10626,0 0.19104,1.20937 0.18841,2.6875 -0.004,2.35947 0.0641,2.79821 0.55928,3.59453 0.92953,1.49472 2.7799,2.09441 4.48216,1.45264 z"
       id="path158" />
    <path
       style="display:inline;fill:#f26644;fill-opacity:1;fill-rule:evenodd;stroke:none;stroke-width:0.16125;stroke-opacity:1;paint-order:stroke markers fill"
       d="m 619.00305,480.7364 c -5.20429,-1.31002 -9.58288,-5.45174 -12.61756,-11.93497 -7.02473,-15.00751 -9.21916,-44.36172 -7.13379,-95.42643 0.62366,-15.27171 1.18986,-22.31534 2.26421,-28.1672 2.0493,-11.16235 6.03312,-16.30216 14.86313,-19.17598 4.85173,-1.57905 10.98681,-2.57275 23.62096,-3.82591 6.01144,-0.59627 8.12977,-0.69514 15,-0.70012 8.44277,-0.006 10.78792,0.1717 16.875,1.27947 12.56659,2.28695 24.16435,7.22896 33.58953,14.31308 18.48778,13.89573 27.67976,35.02305 23.66882,54.40166 -1.49761,7.23562 -5.0059,13.30079 -12.68645,21.9325 -4.43093,4.97966 -5.53365,6.85462 -5.25467,8.93458 0.30172,2.24949 1.48466,3.85237 7.02555,9.51959 4.96684,5.08007 7.40249,8.24755 9.27975,12.06797 1.80411,3.67156 2.61873,6.56681 2.80469,9.96813 0.44146,8.07453 -3.1923,15.13748 -10.62218,20.64641 -5.39844,4.00269 -11.81672,6.07994 -17.67779,5.72133 -10.1617,-0.62175 -19.77233,-7.30163 -27.493,-19.10905 -0.92374,-1.4127 -2.83472,-4.80742 -4.24662,-7.54382 -2.8364,-5.49725 -4.23812,-7.63442 -6.49967,-9.90995 -2.64007,-2.65637 -5.76679,-4.01149 -7.74758,-3.35777 -2.82159,0.93121 -4.12224,4.01496 -4.13543,9.80477 -0.0146,6.42396 -1.86714,13.57209 -4.81901,18.59473 -1.67483,2.84974 -5.31527,6.6 -7.81094,8.04657 -2.03961,1.18222 -5.75531,2.60459 -9.125,3.49305 -3.04096,0.80179 -8.76126,1.02159 -11.12195,0.42736 z M 674,405.62281 c 4.40811,-0.48604 5.15354,-0.84155 6.03084,-2.87622 0.6635,-1.53881 0.55246,-4.72158 -0.26013,-7.45669 -1.62433,-5.46731 -6.20551,-12.51401 -10.56394,-16.24929 -3.80902,-3.26442 -7.09117,-4.57307 -9.82473,-3.9173 -5.41652,1.2994 -13.00132,11.48804 -15.38672,20.66893 -1.10858,4.26669 -0.72279,7.98667 0.88645,8.54766 1.16294,0.4054 5.40196,1.03247 8.49323,1.25639 4.14545,0.30027 17.98087,0.31806 20.625,0.0265 z m -28.59228,-22.39339 c 2.24855,-1.15025 3.09081,-4.55646 1.99628,-8.0732 -0.64679,-2.07814 -1.54335,-3.52302 -2.99712,-4.83008 -2.00706,-1.80452 -4.03315,-2.14991 -6.21974,-1.06029 -3.99586,1.99123 -4.38177,8.30268 -0.7309,11.95355 2.35226,2.35225 5.65192,3.18636 7.95148,2.01002 z m 38.90166,-0.3611 c 4.97417,-2.48562 6.67678,-9.14894 3.21976,-12.6008 -2.42033,-2.41671 -5.91017,-2.09481 -8.35988,0.77111 -1.30621,1.52814 -2.18122,3.28252 -2.70985,5.43323 -1.00074,4.0715 1.12622,7.1524 4.93816,7.15294 1.05567,1.5e-4 1.76801,-0.18491 2.91181,-0.75648 z m -11.32865,-9.23285 c 1.82705,-0.88616 3.86533,-3.06055 4.93457,-5.26409 1.18644,-2.44507 1.5618,-4.12278 1.53735,-6.87138 -0.0426,-4.78555 -2.31527,-8.52602 -5.79506,-9.53762 -2.65036,-0.77048 -4.80685,-0.0128 -7.64982,2.68773 -1.90079,1.80557 -2.85461,3.37708 -3.0678,5.0545 -0.1607,1.26445 -0.47107,1.92039 -0.90864,1.92039 -0.41432,0 -0.90633,-1.06545 -0.90633,-1.96268 0,-2.69807 -5.39997,-8.03732 -8.12871,-8.03732 -1.58912,0 -3.30693,0.728 -4.68095,1.98378 -3.6337,3.32099 -4.47075,9.87981 -1.90784,14.94911 0.93992,1.85913 3.20709,4.11944 4.86952,4.85482 2.61596,1.15716 5.80574,0.77737 7.79875,-0.92857 1.3249,-1.13407 1.78896,-2.0178 2.05761,-3.91846 0.2051,-1.451 0.81871,-2.53998 1.33436,-2.3681 0.13983,0.0466 0.39249,0.90524 0.56146,1.90808 0.19272,1.14379 0.57335,2.25584 1.02129,2.98384 0.74183,1.2056 2.56038,2.61103 3.91569,3.02614 1.31376,0.4024 3.65765,0.17795 5.01455,-0.48017 z"
       id="path159" />
    <path
       style="display:inline;fill:#f26644;fill-opacity:1;fill-rule:evenodd;stroke:none;stroke-width:0.16125;stroke-opacity:1;paint-order:stroke markers fill"
       d="m 786.375,479.13214 c -14.91046,-0.68877 -25.96381,-2.31843 -30.77913,-4.53796 -2.07651,-0.95713 -3.36354,-2.26872 -4.55001,-4.63685 -3.68437,-7.3538 -5.86019,-21.88982 -6.69253,-44.71079 -0.68504,-18.7823 0.35167,-60.14802 1.90775,-76.12154 1.73538,-17.81413 5.38159,-21.97946 20.88765,-23.86151 3.46542,-0.42061 13.15112,-1.18513 22.60127,-1.78397 8.48018,-0.53738 28.25365,-0.75546 34.03033,-0.37532 14.37177,0.94573 22.83025,3.39002 27.97123,8.08297 3.72775,3.40288 5.345,7.68193 5.36471,14.19439 0.044,14.53855 -5.08057,19.78011 -21.3663,21.85402 -4.05085,0.51585 -9.0068,0.82538 -18.24997,1.13981 -12.89747,0.43874 -17.12986,0.87239 -18.96283,1.9429 -1.48453,0.86701 -2.41217,3.50234 -2.41217,6.85272 0,1.5903 0.61188,2.71328 1.98121,3.63607 1.88053,1.26729 3.92545,1.53078 14.14379,1.82244 4.8125,0.13736 10.60625,0.3595 12.875,0.49364 18.19658,1.0759 24.47392,7.14218 22.37931,21.62684 -0.87418,6.04518 -2.29186,9.02269 -5.22197,10.96759 -3.7715,2.50337 -9.33462,3.39902 -24.15734,3.88927 -15.68389,0.51874 -18.39239,0.89837 -20.19525,2.83067 -0.74,0.79313 -1.15052,3.24704 -0.92979,5.55789 0.207,2.16702 0.58187,3.08845 1.60767,3.9516 1.78472,1.50175 4.66335,1.85513 17.76737,2.18115 13.88476,0.34545 19.07506,0.78956 25.25,2.16055 5.36457,1.19106 8.82305,2.77501 11.53863,5.28455 1.9097,1.76481 2.99745,3.43326 3.89199,5.96977 0.65661,1.86183 0.6899,2.1757 0.68471,6.45696 -0.0132,10.86498 -2.95361,17.60986 -8.92599,20.47476 -5.01021,2.40335 -11.65899,3.41237 -29.06434,4.41082 -5.9403,0.34076 -27.83431,0.50251 -33.375,0.24656 z"
       id="path160" />
    <path
       style="display:inline;fill:#f26644;fill-opacity:1;fill-rule:evenodd;stroke:none;stroke-width:0.16125;stroke-opacity:1;paint-order:stroke markers fill"
       d="m 916.625,480.49071 c -15.07356,-1.899 -29.06546,-8.70419 -38.8966,-18.91801 -6.57314,-6.829 -10.56531,-13.95735 -12.50163,-22.3227 -0.62809,-2.71347 -0.69596,-3.46562 -0.71059,-7.875 -0.0124,-3.74885 0.0834,-5.32172 0.41502,-6.80881 2.38376,-10.69033 10.59837,-18.99796 21.88192,-22.12975 2.21813,-0.61565 2.82959,-0.67665 6.81188,-0.67965 3.4906,-0.003 4.70349,0.0893 6,0.45469 3.82863,1.07903 7.20469,3.20739 9.46435,5.96657 1.68472,2.05713 2.57554,3.7798 3.80467,7.35746 1.16654,3.39548 1.98727,4.80927 3.74792,6.45615 2.81798,2.63589 6.54417,3.45911 9.49446,2.09759 2.66665,-1.23062 4.18258,-3.18394 4.72573,-6.08925 0.4903,-2.62259 0.74782,-14.17571 0.75786,-34 0.0102,-20.24016 0.26561,-31.29589 0.86815,-37.58531 1.45325,-15.16939 4.71833,-20.26408 14.60019,-22.78152 6.16328,-1.57011 13.25259,-2.1986 17.03667,-1.51033 12.59132,2.29015 17.94404,15.36745 19.75028,48.25216 0.43917,7.99561 0.59904,27.5821 0.27241,33.375 -1.12515,19.95518 -4.69725,35.76073 -11.01764,48.75 -6.07466,12.48425 -13.92677,19.56808 -26.88005,24.25 -3.83276,1.38534 -9.69385,2.92021 -13.375,3.50257 -3.67758,0.5818 -12.49633,0.71103 -16.25,0.23814 z"
       id="path161" />
    <path
       style="display:inline;fill:#f26644;fill-opacity:1;fill-rule:evenodd;stroke:none;stroke-width:0.16125;stroke-opacity:1;paint-order:stroke markers fill"
       d="m 1044.25,479.12524 c -14.7161,-0.58861 -28.0829,-1.86705 -31.5476,-3.01731 -7.8371,-2.60183 -11.3261,-11.23544 -12.82399,-31.73293 -1.16665,-15.96511 -1.30875,-62.69794 -0.2477,-81.46093 1.40369,-24.82223 4.68039,-34.00774 13.08309,-36.67611 2.6327,-0.83602 13.637,-2.1774 24.4112,-2.97562 22.2639,-1.64946 41.7608,-0.77407 55.375,2.48625 10.6631,2.55359 16.4282,5.92456 18.7586,10.96854 1.0807,2.33892 2.0304,5.24828 2.393,7.3305 0.4196,2.40947 0.1702,6.86262 -0.4865,8.68541 -1.9185,5.32532 -6.8612,9.34557 -14.6033,11.87783 -7.0586,2.3087 -14.1075,3.28757 -27.0618,3.75804 -15.9992,0.58105 -19.2213,1.21101 -20.1565,3.94083 -0.466,1.35997 -0.4134,5.71108 0.083,6.8448 0.7955,1.8182 2.8589,2.7514 7.0738,3.19929 1.2375,0.1315 6.1312,0.30761 10.875,0.39135 12.5371,0.22132 17.1568,0.65122 22,2.04722 3.5272,1.01668 5.6416,2.17351 7.6449,4.18258 2.9117,2.92013 3.8965,5.73791 3.8969,11.15002 8e-4,10.88018 -2.8955,15.69873 -10.6585,17.73204 -4.6037,1.20582 -11.5458,1.75478 -22.3833,1.77 -6.8899,0.01 -11.9588,0.28854 -14.1605,0.77904 -2.2728,0.50636 -3.3921,1.21891 -4.0892,2.6033 -0.5517,1.09558 -0.6232,1.5475 -0.6109,3.86562 0.01,1.66123 0.1346,2.85447 0.3427,3.25 0.5962,1.13263 1.5816,1.98103 2.7458,2.36391 2.4285,0.79873 4.6397,0.94968 23.8971,1.63133 8.3125,0.29424 11.763,0.56778 16.0203,1.27003 11.1589,1.84068 16.0843,5.33031 18.1507,12.85973 0.4943,1.80139 0.5488,2.59582 0.5488,8 0,6.66203 -0.2529,8.22839 -1.8534,11.47959 -4.195,8.52133 -15.8632,11.21374 -49.8664,11.50659 -6.325,0.0545 -13.8625,0.005 -16.75,-0.11094 z"
       id="path162" />
    <path
       style="display:inline;fill:#f26644;fill-opacity:1;fill-rule:evenodd;stroke:none;stroke-width:1.82434;stroke-opacity:1;paint-order:stroke markers fill"
       d="m 1135.6576,474.36599 c -3.6546,-2.95927 -7.2487,-10.28283 -8.6755,-17.67767 -3.2668,-16.93128 -3.2135,-97.43172 0.074,-111.62021 3.0889,-13.33182 11.639,-21.21321 23.0129,-21.21321 19.5867,0 26.3424,19.53076 26.4158,76.36754 0.058,45.05433 -5.1114,70.85294 -15.2888,76.29976 -8.162,4.36812 -18.566,3.48971 -25.5384,-2.15621 z"
       id="path163" />
    <path
       style="display:inline;fill:#280b0b;fill-opacity:1;fill-rule:evenodd;stroke:none;stroke-width:0.408388;stroke-opacity:1;paint-order:stroke markers fill"
       d="m 339.99085,284.3593 c -2.31333,-5.33317 -1.19118,-8.01782 -0.0448,-9.93288 2.0848,-3.48281 8.32765,-5.66987 13.6382,-3.51409 6.34055,2.57393 13.21904,10.44955 13.31712,16.51621 0.0628,3.88615 -2.26316,7.62538 -6.06315,9.0837 -8.77951,3.36933 -19.01163,-7.92082 -20.84736,-12.15294 z"
       id="path129" />
    <path
       style="display:inline;fill:#f26644;fill-opacity:1;fill-rule:evenodd;stroke:none;stroke-width:0.734536;stroke-opacity:1;paint-order:stroke markers fill"
       d="m 1144.6759,304.05933 c -6.3104,-4.56842 -8.3187,-10.9984 -6.9564,-22.26892 1.2622,-10.4384 5.0269,-22.39922 8.4757,-26.92772 3.0873,-4.05374 8.7542,-4.5806 12.4422,-1.15676 6.6128,6.13865 8.1742,23.55131 3.3851,37.74777 -4.8901,14.4953 -9.8039,18.06618 -17.3466,12.60563 z"
       id="path169" />
    <path
       style="display:inline;fill:#f26644;fill-opacity:1;fill-rule:evenodd;stroke:none;stroke-width:1.02207;stroke-opacity:1;paint-order:stroke markers fill"
       d="m 1112.8756,317.72059 c -4.4074,-2.02344 -7.7125,-11.24499 -7.7125,-21.51991 0,-21.66491 16.1616,-20.57802 20.7699,1.39684 3.6969,17.62607 -1.3974,25.47614 -13.0574,20.12307 z"
       id="path170" />
    <path
       style="display:inline;fill:#f26644;fill-opacity:1;fill-rule:evenodd;stroke:none;stroke-width:0.734536;stroke-opacity:1;paint-order:stroke markers fill"
       d="m 1173.1662,322.08593 c -2.4643,-2.44554 -4.9912,-8.78692 -4.9912,-12.52601 0,-1.41709 1.0952,-5.49457 2.4335,-9.06113 7.1012,-18.9213 18.4602,-28.72015 27.5916,-23.80133 5.2552,2.83073 7.2674,13.99715 4.0882,22.68812 -2.4713,6.75763 -9.3684,16.73304 -14.3901,20.81382 -5.5384,4.50075 -11.3482,5.24472 -14.732,1.88653 z"
       id="path171" />
    <path
       style="display:inline;fill:#f26644;fill-opacity:1;fill-rule:evenodd;stroke:none;stroke-width:0.862327;stroke-opacity:1;paint-order:stroke markers fill"
       d="m 1182.9746,363.66981 c -4.0813,-3.5281 -3.8571,-10.23562 0.6276,-18.76008 4.6424,-8.82477 8.3203,-12.27152 13.0947,-12.27152 11.645,0 9.0313,25.5802 -3.211,31.41809 -5.0349,2.40122 -7.3865,2.31473 -10.5113,-0.38615 z"
       id="path172" />
    <path
       style="display:none;fill:#f26644;fill-opacity:1;fill-rule:evenodd;stroke:none;stroke-width:0.228042;stroke-opacity:1;paint-order:stroke markers fill"
       d="m 423.73374,471.21376 c -0.80804,-0.29539 -2.12132,-1.5858 -2.12132,-2.08438 0,-0.8095 1.81454,-1.90858 3.15099,-1.90858 2.1948,0 3.52691,1.58486 2.58164,3.07148 -0.53027,0.83395 -2.48577,1.33292 -3.61131,0.92148 z"
       id="path181" />
    <path
       style="display:none;fill:#f26644;fill-opacity:1;fill-rule:evenodd;stroke:none;stroke-width:0.228042;stroke-opacity:1;paint-order:stroke markers fill"
       d="m 418.34107,484.55051 c -2.06086,-1.62107 -1.38401,-3.9805 1.5632,-5.44916 2.35275,-1.17243 4.7449,-1.23772 6.10651,-0.16668 0.76532,0.602 0.91171,0.94005 0.72726,1.67938 -0.87064,3.48986 -5.9422,5.86738 -8.39697,3.93646 z"
       id="path182" />
  </g>
</svg>
